[img]http://img814.imageshack.us/img814/7238/muh5k.jpg[/img]
[CODE]
The Karate Kid 2010 Uncut 720p BRRiP AC3 XViD - IMAGiNE
********************************************************************************************************************

Ripper ...........: IMAGiNE                                         IMDB Rating.......:6.2/10                             
Video Codec.......: XVID                                         Release Date......:23/08/10
Audio Codec.......:AC3                                           Theatre Date......:08/08/10
Audio Bitrate.....:640                                               Runtime.......:2h 20mn
Subtitles.........:ENG WHEN NEEDED                  Language..........:ENGLISH
Resolution...... 1280 x 528                                      IMDb URL..........:http://www.imdb.com/title/tt1155076/


DETAILS:

Video
ID                               : 0
Format                           : MPEG-4 Visual
Format profile                   : Advanced Simple@L5
Format settings, BVOP            : Yes
Format settings, QPel            : No
Format settings, GMC             : No warppoints
Format settings, Matrix          : Default (MPEG)
Muxing mode                      : Packed bitstream
Codec ID                         : XVID
Codec ID/Hint                    : XviD
Duration                         : 2h 20mn
Bit rate                         : 3 372 Kbps
Width                            : 1 280 pixels
Height                           : 528 pixels
Display aspect ratio             : 2.424
Frame rate                       : 23.976 fps
Resolution                       : 24 bits
Colorimetry                      : 4:2:0
Scan type                        : Progressive
Bits/(Pixel*Frame)               : 0.208
Stream size                      : 3.30 GiB (84%)
Writing library                  : XviD 1.2.1 (UTC 2008-12-04)

Audio
ID                               : 1
Format                           : AC-3
Format/Info                      : Audio Coding 3
Codec ID                         : 2000
Duration                         : 2h 20mn
Bit rate mode                    : Constant
Bit rate                         : 640 Kbps
Channel(s)                       : 6 channels
Channel positions                : Front: L C R, Surround: L R, LFE
Sampling rate                    : 48.0 KHz
Stream size                      : 641 MiB (16%)
Alignment                        : Aligned on interleaves
Interleave, duration             : 42 ms (1.00 video frame)
Interleave, preload duration     : 512 ms


SOURCES:

VIDEO:The Karate Kid 2010 PROPER REPACK 1080p BluRay x264-METiS .....  Thanks
AUDIO:The Karate Kid 2010 PROPER REPACK 1080p BluRay x264-METiS ....   Thanks

NOTES:

IMAGiNE bringing you another release.....The Karate Kid 2010 UNCUT

Right this is just a straight forward rip of the 1080p x264 release.......For this we did a script that cropped,resized,sharpness,
white balance.......oh also we hardcoded the 84 lines of english subs for when their needed.
Also we needed to demux and encode the DTS audio track to a 5.1 AC3 file and then remux back to our rip afterwards 

Enjoy this nice UNCUT remake 
[/CODE]
Screens:
[img]http://img839.imageshack.us/img839/9265/81111338.png[/img]
[img]http://img52.imageshack.us/img52/7232/39981512.png[/img]
[img]http://img411.imageshack.us/img411/7307/20190698.png[/img]
[img]http://img825.imageshack.us/img825/1610/65215083.png[/img]
[img]http://img839.imageshack.us/img839/3947/60616858.png[/img]
